HIERARCHY
ROOT Hips
{
	OFFSET	0.00	0.00	0.00
	CHANNELS 6 Xposition Yposition Zposition Zrotation Xrotation Yrotation
	JOINT Spine
	{
		OFFSET	 0.00	0.01	 0.00
		CHANNELS 3 Zrotation Xrotation Yrotation
		JOINT Spine1
		{
			OFFSET	 0.00	 2.45913012437421	 0.00
			CHANNELS 3 Zrotation Xrotation Yrotation
            JOINT Neck
            {
                OFFSET	 0.00	 2.48462964506057	 0.00
                CHANNELS 3 Zrotation Xrotation Yrotation
                JOINT Head
                {
                    OFFSET	 0.00	 0.927524780924562	 0.00
                    CHANNELS 3 Zrotation Xrotation Yrotation
                    End Site 
                    {
                        OFFSET	 0.00	 1.14999962169752	 0.00
                    }
                }
            }
			JOINT LeftShoulder
			{
				OFFSET	 0.00	 2.48462964506057	 0.00
				CHANNELS 3 Zrotation Xrotation Yrotation
				JOINT LeftUpArm
				{
					OFFSET	 0.00	 1.24881979654096	 0.00
					CHANNELS 3 Zrotation Xrotation Yrotation
					JOINT LeftForeArm
					{
						OFFSET	 0.00	2.59758046908119	 0.00
						CHANNELS 3 Zrotation Xrotation Yrotation
						JOINT LeftHand
						{
							OFFSET	 0.00	2.45542024364365	 0.00
							CHANNELS 3 Zrotation Xrotation Yrotation
							JOINT LeftHandThumb 
							{
								OFFSET	 0.00	0.00	 0.00
								CHANNELS 3 Zrotation Xrotation Yrotation
								End Site
								{
									OFFSET	 0.00	0.00	1.00000003353624
								}
							}
							JOINT L_Wrist_End 
							{
								OFFSET	 0.00	0.99999967115358	 0.00
								CHANNELS 3 Zrotation Xrotation Yrotation
								End Site 
								{
									OFFSET	 0.00	 0.00	 0.00
								}
							}
						}
					}
				}
			}
			JOINT RightShoulder
			{
				OFFSET	 0.00	 2.48462964506057	 0.00
				CHANNELS 3 Zrotation Xrotation Yrotation
				JOINT RightUpArm
				{
					OFFSET	 0.00	 1.24881979654096	 0.00
					CHANNELS 3 Zrotation Xrotation Yrotation
					JOINT RightForeArm
					{
						OFFSET	 0.00	2.59758046908119	 0.00
						CHANNELS 3 Zrotation Xrotation Yrotation
						JOINT RightHand
						{
							OFFSET	 0.00	2.45542024364365	 0.00
							CHANNELS 3 Zrotation Xrotation Yrotation
							JOINT RightHandThumb 
							{
								OFFSET	 0.00	0.00	 0.00
								CHANNELS 3 Zrotation Xrotation Yrotation
								End Site
								{
									OFFSET	 0.00	0.00	1.00000003353624
								}
							}
							JOINT R_Wrist_End 
							{
								OFFSET	 0.00	0.99999967115358	 0.00
								CHANNELS 3 Zrotation Xrotation Yrotation
								End Site 
								{
									OFFSET	 0.00	 0.00	 0.00
								}
							}
						}
					}
				}
			}
		}
	}
	JOINT LeftUpLeg
	{
		OFFSET	 1.2719394002717	 0.00	 0.00
		CHANNELS 3 Zrotation Xrotation Yrotation
		JOINT LeftLowLeg
		{
			OFFSET	 0.00	-4.3429100912261	 0.00
			CHANNELS 3 Zrotation Xrotation Yrotation
			JOINT LeftFoot
			{
				OFFSET	 0.00	-4.48767017425826	 0.00
				CHANNELS 3 Zrotation Xrotation Yrotation
				JOINT LeftToeBase
                {
                    OFFSET	 0.00	0.00	 1.51507020887566
                    CHANNELS 3 Zrotation Xrotation Yrotation
                    End Site 
                    {
                        OFFSET	 0.00	0.00	 0.75000010571191
                    }
                }
			}
		}
	}
	JOINT RightUpLeg
	{
		OFFSET	 -1.2719393604653	 0.00	 0.00
		CHANNELS 3 Zrotation Xrotation Yrotation
		JOINT RightLowLeg
		{
			OFFSET	 0.00	-4.3429100912261	 0.00
			CHANNELS 3 Zrotation Xrotation Yrotation
			JOINT RightFoot
			{
				OFFSET	 0.00	-4.48767017425826	 0.00
				CHANNELS 3 Zrotation Xrotation Yrotation
				JOINT RightToeBase
                {
                    OFFSET	 0.00	0.00	 1.51507020887566
                    CHANNELS 3 Zrotation Xrotation Yrotation
                    End Site 
                    {
                        OFFSET	 0.00	0.00	 0.749999965609858
                    }
                }   
			}
		}
	}
}
MOTION 
Frames:	13 
Frame Time: 0.02 
 3.9520498657226564 -0.6480650329589843 10.536500244140624 -85.8222 82.9211 75.8209 4.00031 -21.3479 -2.903 7.99147 36.7191 -6.15596 6.81399 38.6319 -6.91041 12.4367 -57.6415 2.18863 -120.440704 1.59443 -6.20772 -36.0286 2.90825 31.5208 0.0 31.0672 0.0 4.56567 -8.7288 -1.12828 0.0 0.0 0.0 0.0 0.0 0.0 117.345505 0.0332145 -3.17694 39.1844 8.54948 -10.9121 0.0 23.2252 0.0 1.39098 -1.28471 7.64038 0.0 0.0 0.0 0.0 0.0 0.0 8.80605 12.804 14.1074 0.0 1.50756 0.0 -8.88437 5.2752504 6.60849 0.0 -9.924379 0.0 8.83524 5.63335 9.46587 0.0 6.652 0.0 16.0582 10.27835 -21.3598 0.0 -11.67072 0.0 
  3.9644400024414064 -0.6428130340576171 10.5372998046875 -86.0722 82.9333 75.9795 3.87597 -21.2963 -2.99573 8.04612 36.7095 -6.1365 6.54099 38.6952 -6.66395 12.3126 -57.696 1.85969 -120.4667 1.69641 -6.4221 -36.0007 2.93862 31.668 0.0 31.6705 0.0 4.83904 -8.65015 -0.876952 0.0 0.0 0.0 0.0 0.0 0.0 117.2191 0.0349836 -3.22373 39.1816 8.55166 -11.0611 0.0 23.2467 0.0 1.35504 -1.5325 7.75139 0.0 0.0 0.0 0.0 0.0 0.0 8.72651 12.7329 13.9244 0.0 1.56896 0.0 -8.86723 5.18851 6.81766 0.0 -9.943621 0.0 8.75523 5.55251 9.50883 0.0 6.65888 0.0 16.0725 10.330009 -21.3144 0.0 -11.67792 0.0 
  3.9787799072265626 -0.6372710037231445 10.538199462890624 -86.1794 82.9359 75.9773 3.99829 -21.3083 -2.79602 7.74033 36.797 -6.15211 6.67192 38.7353 -6.77061 12.4218 -57.7287 2.02606 -120.2932 1.80717 -6.49297 -35.9398 3.1023 31.6634 0.0 32.3045 0.0 4.97208 -8.58947 -0.848462 0.0 0.0 0.0 0.0 0.0 0.0 117.2624 0.0400514 -3.20903 39.2565 8.58807 -11.1097 0.0 23.106 0.0 1.37893 -1.47436 7.71286 0.0 0.0 0.0 0.0 0.0 0.0 8.63977 12.6713 13.868 0.0 1.64799 0.0 -8.82632 5.1132097 6.93438 0.0 -9.91633 0.0 8.66364 5.49695 9.59939 0.0 6.65038 0.0 16.1587 10.36415 -21.2651 0.0 -11.67328 0.0 
  3.9933099365234375 -0.6329159927368164 10.538299560546875 -86.4464 82.9344 76.0686 4.15526 -21.2737 -2.57065 7.43803 36.7499 -6.12575 6.73939 38.8295 -6.82916 12.4389 -57.7803 2.11259 -120.2048 1.86408 -6.50067 -35.8189 3.26519 31.7168 0.0 32.8839 0.0 5.17906 -8.33806 -0.847673 0.0 0.0 0.0 0.0 0.0 0.0 117.3284 0.0737727 -3.19906 39.2666 8.50142 -11.1253 0.0 23.0799 0.0 1.36163 -1.36737 7.60273 0.0 0.0 0.0 0.0 0.0 0.0 8.54123 12.6434 13.7238 0.0 1.68039 0.0 -8.82168 5.01116 7.17312 0.0 -9.86478 0.0 8.5703 5.42691 9.69319 0.0 6.65212 0.0 16.21 10.402531 -21.1617 0.0 -11.68091 0.0 
  4.008840026855469 -0.6277899932861328 10.538900146484375 -86.5655 82.9557 76.0846 4.26506 -21.2503 -2.38308 7.16291 36.7516 -6.10611 6.74391 38.8975 -6.79566 12.5595 -57.8828 2.203 -120.0689 1.97754 -6.51646 -35.7746 3.38478 31.6488 0.0 33.5109 0.0 5.35648 -8.31787 -0.75197 0.0 0.0 0.0 0.0 0.0 0.0 117.4014 0.131527 -3.19993 39.2279 8.44999 -11.2141 0.0 23.0493 0.0 1.32422 -1.44615 7.872 0.0 0.0 0.0 0.0 0.0 0.0 8.43948 12.548 13.5816 0.0 1.82375 0.0 -8.76771 4.8992004 7.34876 0.0 -9.77066 0.0 8.45066 5.37172 9.71252 0.0 6.63191 0.0 16.2694 10.43919 -21.0535 0.0 -11.68258 0.0 
  4.023030090332031 -0.623573989868164 10.538900146484375 -86.9034 82.9813 76.2756 4.30214 -21.2285 -2.27941 6.9972 36.7291 -6.07124 6.57874 38.9842 -6.57001 12.6179 -58.0194 2.21783 -120.0067 2.01943 -6.55807 -35.7253 3.47354 31.663 0.0 34.1097 0.0 5.64078 -8.21793 -0.85414 0.0 0.0 0.0 0.0 0.0 0.0 117.4124 0.191403 -3.2524 39.1956 8.41285 -11.1165 0.0 23.1181 0.0 1.41464 -1.55834 7.68429 0.0 0.0 0.0 0.0 0.0 0.0 8.33579 12.4493 13.4735 0.0 1.95322 0.0 -8.74182 4.7914 7.51456 0.0 -9.76406 0.0 8.33545 5.303 9.76133 0.0 6.60275 0.0 16.3207 10.47275 -20.9346 0.0 -11.69843 0.0 
  4.038450012207031 -0.6191120147705078 10.539200439453126 -87.0328 82.9985 76.2973 4.34361 -21.1965 -2.17852 6.83385 36.7362 -6.05311 6.39755 39.0385 -6.32838 12.7545 -58.1663 2.18554 -119.9058 2.07348 -6.61216 -35.7237 3.52903 31.6539 0.0 34.6896 0.0 5.92681 -8.11102 -0.882621 0.0 0.0 0.0 0.0 0.0 0.0 117.4381 0.233533 -3.32026 39.1196 8.49122 -11.2336 0.0 23.0867 0.0 1.39053 -1.56394 7.61232 0.0 0.0 0.0 0.0 0.0 0.0 8.2388 12.3252 13.2115 0.0 2.16773 0.0 -8.66698 4.6166 7.81144 0.0 -9.71898 0.0 8.22331 5.26701 9.80736 0.0 6.5568 0.0 16.3681 10.50179 -20.8754 0.0 -11.66434 0.0 
  4.054469909667969 -0.6146960067749023 10.539599609375 -86.9844 83.0157 76.1774 4.33827 -21.1315 -2.12695 6.72527 36.7199 -6.02762 6.30306 39.1021 -6.21644 12.8019 -58.3012 2.17192 -119.8588 2.13538 -6.63919 -35.6987 3.58062 31.5922 0.0 35.2164 0.0 6.09795 -8.03926 -1.04249 0.0 0.0 0.0 0.0 0.0 0.0 117.4297 0.274537 -3.32874 39.0681 8.51807 -11.2738 0.0 23.1008 0.0 1.41147 -1.52309 7.64188 0.0 0.0 0.0 0.0 0.0 0.0 8.14916 12.1587 12.9901 0.0 2.49037 0.0 -8.59232 4.3995 8.03098 0.0 -9.70524 0.0 8.09785 5.24184 9.73286 0.0 6.53121 0.0 16.4295 10.536079 -20.7021 0.0 -11.67185 0.0 
  4.071029968261719 -0.6118119812011719 10.5393994140625 -86.7027 83.0185 75.9392 4.31095 -21.0531 -2.13686 6.63439 36.683 -6.06242 6.18152 39.1843 -6.06972 12.9405 -58.4899 2.11944 -119.797195 2.20191 -6.68227 -35.6856 3.55646 31.6028 0.0 35.7274 0.0 6.30758 -8.01812 -0.966176 0.0 0.0 0.0 0.0 0.0 0.0 117.4715 0.330872 -3.29228 38.9627 8.46422 -11.3484 0.0 23.1503 0.0 1.35227 -1.39777 7.57536 0.0 0.0 0.0 0.0 0.0 0.0 8.08854 11.9397 12.4408 0.0 2.94319 0.0 -8.44171 4.076 8.47187 0.0 -9.68837 0.0 7.9909 5.24737 9.67603 0.0 6.52678 0.0 16.5584 10.515181 -20.6251 0.0 -11.736219 0.0 
  4.088510131835937 -0.6076969909667969 10.538599853515626 -86.7487 83.012 76.036 4.28031 -21.0039 -2.14955 6.57093 36.6869 -6.09045 6.21144 39.2148 -6.11325 13.0597 -58.6692 2.17537 -119.7351 2.1983 -6.63816 -35.6995 3.71813 31.5924 0.0 36.0879 0.0 6.39208 -7.8243 -1.02036 0.0 0.0 0.0 0.0 0.0 0.0 117.461 0.373658 -3.19409 38.9199 8.46059 -11.487 0.0 23.1691 0.0 1.33228 -1.46152 7.60948 0.0 0.0 0.0 0.0 0.0 0.0 8.05579 11.5696 11.9886 0.0 3.60215 0.0 -8.26229 3.6545 8.82942 0.0 -9.70765 0.0 7.90719 5.1843 9.75249 0.0 6.5695 0.0 16.6846 10.4439 -20.6476 0.0 -11.7223 0.0 
  4.107049865722656 -0.6055690002441406 10.536500244140624 -86.5715 82.9833 75.985 4.21635 -20.9139 -2.23279 6.57162 36.6197 -6.14357 6.2868 39.266 -6.22729 13.0688 -58.775 2.20695 -119.7025 2.24246 -6.63397 -35.716 3.72008 31.6562 0.0 36.4421 0.0 6.50046 -7.76583 -0.889112 0.0 0.0 0.0 0.0 0.0 0.0 117.4382 0.335889 -3.21364 38.8622 8.54095 -11.5051 0.0 23.2339 0.0 1.31977 -1.39027 7.53545 0.0 0.0 0.0 0.0 0.0 0.0 8.03064 11.1776 11.0554 0.0 4.35609 0.0 -8.05834 3.1025 9.58618 0.0 -9.71311 0.0 7.84311 5.12117 9.89491 0.0 6.70823 0.0 16.9452 10.24357 -20.7288 0.0 -11.72686 0.0 
  4.127040100097656 -0.6040750122070313 10.533800048828125 -86.1877 82.9488 75.7589 4.13941 -20.8008 -2.33991 6.59888 36.5649 -6.2104 6.2877 39.3558 -6.24598 13.1522 -58.9639 2.21151 -119.6756 2.27373 -6.66666 -35.7625 3.70407 31.779 0.0 36.7161 0.0 6.67009 -7.76528 -1.01345 0.0 0.0 0.0 0.0 0.0 0.0 117.414 0.361368 -3.17982 38.7786 8.56354 -11.5194 0.0 23.2781 0.0 1.35113 -1.42258 7.69065 0.0 0.0 0.0 0.0 0.0 0.0 7.99526 10.7875 10.0903 0.0 5.14964 0.0 -7.85204 2.5263004 10.3365 0.0 -9.74913 0.0 7.77605 5.03196 9.94059 0.0 6.96653 0.0 17.2453 9.94216 -20.7056 0.0 -11.68288 0.0 
  4.14781005859375 -0.6028469848632813 10.5306005859375 -85.8878 82.9391 75.6299 4.04473 -20.735 -2.42771 6.60329 36.5627 -6.25029 6.35672 39.3667 -6.35451 13.2821 -59.1001 2.19348 -119.6464 2.32964 -6.62601 -35.7957 3.76546 31.87 0.0 36.8562 0.0 6.71026 -7.70438 -0.87638 0.0 0.0 0.0 0.0 0.0 0.0 117.3963 0.391277 -3.20705 38.7281 8.62365 -11.4545 0.0 23.3755 0.0 1.20958 -1.39977 7.71136 0.0 0.0 0.0 0.0 0.0 0.0 7.91979 10.3636 8.92703 0.0 5.97198 0.0 -7.6691 1.9315004 11.2511 0.0 -9.77407 0.0 7.71227 4.82958 10.116 0.0 7.45515 0.0 17.4497 9.57339 -20.7914 0.0 -11.75975 0.0 
